<svg width="148" height="41" viewBox="0 0 148 41" fill="none" xmlns="http://www.w3.org/2000/svg">
<path d="M11.5022 20.0001H8.42424L4.66224 12.2061L3.27624 20.0001H0.198242L2.43024 7.36408H5.50824L9.27024 15.1941L10.6562 7.36408H13.7342L11.5022 20.0001Z" fill="white"/>
<path d="M21.9954 17.7681H17.2794L16.1274 20.0001H12.9054L19.7094 7.36408H23.2734L25.6134 20.0001H22.3554L21.9954 17.7681ZM21.6354 15.4281L20.8974 10.7481L18.4854 15.4281H21.6354Z" fill="white"/>
<path d="M32.3149 7.36408L30.0829 20.0001H27.0049L29.2369 7.36408H32.3149Z" fill="white"/>
<path d="M40.5755 17.7681H35.8595L34.7075 20.0001H31.4855L38.2895 7.36408H41.8535L44.1935 20.0001H40.9355L40.5755 17.7681ZM40.2155 15.4281L39.4775 10.7481L37.0655 15.4281H40.2155Z" fill="white"/>
<path d="M56.889 20.0001H53.811L50.049 12.2061L48.663 20.0001H45.585L47.817 7.36408H50.895L54.657 15.1941L56.043 7.36408H59.121L56.889 20.0001Z" fill="white"/>
<path d="M66.0861 7.36408C67.2501 7.36408 68.2521 7.57408 69.0921 7.99408C69.9441 8.40208 70.5921 8.98408 71.0361 9.74008C71.4921 10.4841 71.7201 11.3601 71.7201 12.3681C71.7201 12.7161 71.6781 13.1541 71.5941 13.6821C71.3781 14.9181 70.9101 16.0161 70.1901 16.9761C69.4821 17.9361 68.5761 18.6801 67.4721 19.2081C66.3801 19.7361 65.1741 20.0001 63.8541 20.0001H59.1201L61.3521 7.36408H66.0861ZM64.1241 17.3721C65.2881 17.3721 66.2541 17.0481 67.0221 16.4001C67.7901 15.7521 68.2701 14.8461 68.4621 13.6821C68.5221 13.3221 68.5521 13.0221 68.5521 12.7821C68.5521 11.8941 68.2821 11.2101 67.7421 10.7301C67.2021 10.2381 66.4341 9.99208 65.4381 9.99208H63.9621L62.6661 17.3721H64.1241Z" fill="white"/>
<path d="M77.0762 9.79408L76.6262 12.4221H80.7482L80.3342 14.7441H76.2122L75.7082 17.5701H80.3702L79.9382 20.0001H72.1982L74.4302 7.36408H82.1702L81.7382 9.79408H77.0762Z" fill="white"/>
<path d="M89.3345 7.36408C90.6425 7.36408 91.6385 7.66408 92.3225 8.26408C93.0065 8.85208 93.3485 9.62008 93.3485 10.5681C93.3485 10.8441 93.3245 11.1021 93.2765 11.3421C93.1325 12.1821 92.7665 12.9321 92.1785 13.5921C91.5905 14.2521 90.8045 14.7201 89.8205 14.9961L91.8545 20.0001H88.3805L86.5985 15.2301H85.8605L85.0145 20.0001H81.9365L84.1685 7.36408H89.3345ZM90.1265 11.4681C90.1505 11.2761 90.1625 11.1501 90.1625 11.0901C90.1625 10.7061 90.0365 10.4121 89.7845 10.2081C89.5445 9.99208 89.1845 9.88408 88.7045 9.88408H86.7965L86.2385 13.0521H88.1465C88.7105 13.0521 89.1545 12.9141 89.4785 12.6381C89.8145 12.3621 90.0305 11.9721 90.1265 11.4681Z" fill="white"/>
<path d="M98.7007 20.1261C97.3327 20.1261 96.2167 19.8321 95.3527 19.2441C94.5007 18.6441 94.0747 17.7981 94.0747 16.7061C94.0747 16.5981 94.0867 16.4361 94.1107 16.2201H97.3147C97.2787 16.6761 97.3867 17.0361 97.6387 17.3001C97.8907 17.5641 98.2747 17.6961 98.7907 17.6961C99.2587 17.6961 99.6247 17.5941 99.8887 17.3901C100.165 17.1861 100.303 16.8981 100.303 16.5261C100.303 16.1421 100.129 15.8301 99.7807 15.5901C99.4447 15.3501 98.9167 15.0801 98.1967 14.7801C97.5007 14.4921 96.9307 14.2221 96.4867 13.9701C96.0547 13.7061 95.6767 13.3521 95.3527 12.9081C95.0287 12.4641 94.8667 11.9061 94.8667 11.2341C94.8547 10.4061 95.0587 9.68608 95.4787 9.07408C95.8987 8.46208 96.4807 7.99408 97.2247 7.67008C97.9687 7.34608 98.8207 7.18408 99.7807 7.18408C100.645 7.18408 101.413 7.32208 102.085 7.59808C102.757 7.86208 103.279 8.25208 103.651 8.76808C104.023 9.27208 104.209 9.87208 104.209 10.5681C104.209 10.7481 104.203 10.8801 104.191 10.9641H100.915C100.927 10.9161 100.933 10.8441 100.933 10.7481C100.933 10.4121 100.813 10.1421 100.573 9.93808C100.345 9.72208 100.027 9.61408 99.6187 9.61408C99.1867 9.61408 98.8327 9.72208 98.5567 9.93808C98.2927 10.1421 98.1607 10.4241 98.1607 10.7841C98.1607 11.1441 98.3287 11.4501 98.6647 11.7021C99.0007 11.9421 99.5227 12.2241 100.231 12.5481C100.939 12.8721 101.515 13.1721 101.959 13.4481C102.415 13.7241 102.805 14.0961 103.129 14.5641C103.453 15.0201 103.615 15.5841 103.615 16.2561C103.615 17.0001 103.417 17.6661 103.021 18.2541C102.625 18.8421 102.055 19.3041 101.311 19.6401C100.567 19.9641 99.6967 20.1261 98.7007 20.1261Z" fill="white"/>
<path d="M110.888 20.1261C109.82 20.1261 108.878 19.9041 108.062 19.4601C107.258 19.0161 106.634 18.3921 106.19 17.5881C105.746 16.7841 105.524 15.8601 105.524 14.8161C105.524 13.3401 105.842 12.0261 106.478 10.8741C107.114 9.71008 107.996 8.80408 109.124 8.15608C110.264 7.50808 111.554 7.18408 112.994 7.18408C114.074 7.18408 115.022 7.40608 115.838 7.85008C116.654 8.28208 117.284 8.90008 117.728 9.70408C118.172 10.4961 118.394 11.4081 118.394 12.4401C118.394 13.9161 118.076 15.2421 117.44 16.4181C116.804 17.5821 115.916 18.4941 114.776 19.1541C113.636 19.8021 112.34 20.1261 110.888 20.1261ZM111.356 17.2821C112.148 17.2821 112.844 17.0781 113.444 16.6701C114.044 16.2621 114.506 15.7161 114.83 15.0321C115.166 14.3361 115.334 13.5861 115.334 12.7821C115.334 11.9181 115.094 11.2401 114.614 10.7481C114.134 10.2561 113.462 10.0101 112.598 10.0101C111.806 10.0101 111.104 10.2141 110.492 10.6221C109.892 11.0301 109.424 11.5761 109.088 12.2601C108.764 12.9321 108.602 13.6761 108.602 14.4921C108.602 15.3561 108.842 16.0401 109.322 16.5441C109.802 17.0361 110.48 17.2821 111.356 17.2821Z" fill="white"/>
<path d="M130.33 20.0001H127.252L123.49 12.2061L122.104 20.0001H119.026L121.258 7.36408H124.336L128.098 15.1941L129.484 7.36408H132.562L130.33 20.0001Z" fill="white"/>
<path d="M11.6462 28.6401C11.5142 29.3841 11.2082 30.0021 10.7282 30.4941C10.2482 30.9861 9.67224 31.3281 9.00024 31.5201C9.60024 31.6521 10.0742 31.9461 10.4222 32.4021C10.7702 32.8581 10.9442 33.3921 10.9442 34.0041C10.9442 34.1961 10.9262 34.3821 10.8902 34.5621C10.7102 35.6181 10.1942 36.4581 9.34224 37.0821C8.49024 37.6941 7.40424 38.0001 6.08424 38.0001H0.198242L2.43024 25.3641H8.11824C9.25824 25.3641 10.1402 25.5981 10.7642 26.0661C11.3882 26.5341 11.7002 27.1821 11.7002 28.0101C11.7002 28.2141 11.6822 28.4241 11.6462 28.6401ZM6.60624 30.4941C7.12224 30.4941 7.53624 30.3801 7.84824 30.1521C8.16024 29.9241 8.35224 29.5941 8.42424 29.1621C8.43624 29.0901 8.44224 28.9941 8.44224 28.8741C8.44224 28.5261 8.32824 28.2621 8.10024 28.0821C7.87224 27.8901 7.53624 27.7941 7.09224 27.7941H5.07624L4.60824 30.4941H6.60624ZM7.83024 34.1481C7.85424 34.0041 7.86624 33.8961 7.86624 33.8241C7.86624 33.4761 7.74024 33.2061 7.48824 33.0141C7.23624 32.8101 6.88824 32.7081 6.44424 32.7081H4.21224L3.70824 35.5521H5.97624C6.50424 35.5521 6.92424 35.4321 7.23624 35.1921C7.54824 34.9521 7.74624 34.6041 7.83024 34.1481Z" fill="white"/>
<path d="M19.4615 25.3641C20.7695 25.3641 21.7655 25.6641 22.4495 26.2641C23.1335 26.8521 23.4755 27.6201 23.4755 28.5681C23.4755 28.8441 23.4515 29.1021 23.4035 29.3421C23.2595 30.1821 22.8935 30.9321 22.3055 31.5921C21.7175 32.2521 20.9315 32.7201 19.9475 32.9961L21.9815 38.0001H18.5075L16.7255 33.2301H15.9875L15.1415 38.0001H12.0635L14.2955 25.3641H19.4615ZM20.2535 29.4681C20.2775 29.2761 20.2895 29.1501 20.2895 29.0901C20.2895 28.7061 20.1635 28.4121 19.9115 28.2081C19.6715 27.9921 19.3115 27.8841 18.8315 27.8841H16.9235L16.3655 31.0521H18.2735C18.8375 31.0521 19.2815 30.9141 19.6055 30.6381C19.9415 30.3621 20.1575 29.9721 20.2535 29.4681Z" fill="white"/>
<path d="M29.0617 25.3641L27.7297 32.9061C27.6817 33.2181 27.6577 33.4341 27.6577 33.5541C27.6577 34.1061 27.8137 34.5321 28.1257 34.8321C28.4377 35.1201 28.8997 35.2641 29.5117 35.2641C30.2317 35.2641 30.8197 35.0601 31.2757 34.6521C31.7317 34.2441 32.0257 33.6621 32.1577 32.9061L33.4897 25.3641H36.5677L35.2357 32.9061C35.0317 34.0461 34.6237 35.0121 34.0117 35.8041C33.4117 36.5841 32.6737 37.1661 31.7977 37.5501C30.9337 37.9341 29.9917 38.1261 28.9717 38.1261C27.6517 38.1261 26.5837 37.7841 25.7677 37.1001C24.9637 36.4161 24.5617 35.4261 24.5617 34.1301C24.5617 33.7461 24.5977 33.3381 24.6697 32.9061L25.9837 25.3641H29.0617Z" fill="white"/>
<path d="M47.8011 38.0001H44.7231L40.9611 30.2061L39.5751 38.0001H36.4971L38.7291 25.3641H41.8071L45.5691 33.1941L46.9551 25.3641H50.0331L47.8011 38.0001Z" fill="white"/>
<path d="M56.0442 38.1261C54.9762 38.1261 54.0342 37.9041 53.2182 37.4601C52.4142 37.0161 51.7902 36.3921 51.3462 35.5881C50.9022 34.7841 50.6802 33.8601 50.6802 32.8161C50.6802 31.3401 50.9982 30.0261 51.6342 28.8741C52.2702 27.7101 53.1522 26.8041 54.2802 26.1561C55.4202 25.5081 56.7102 25.1841 58.1502 25.1841C59.2302 25.1841 60.1782 25.4061 60.9942 25.8501C61.8102 26.2821 62.4402 26.9001 62.8842 27.7041C63.3282 28.4961 63.5502 29.4081 63.5502 30.4401C63.5502 31.9161 63.2322 33.2421 62.5962 34.4181C61.9602 35.5821 61.0722 36.4941 59.9322 37.1541C58.7922 37.8021 57.4962 38.1261 56.0442 38.1261ZM56.5122 35.2821C57.3042 35.2821 58.0002 35.0781 58.6002 34.6701C59.2002 34.2621 59.6622 33.7161 59.9862 33.0321C60.3222 32.3361 60.4902 31.5861 60.4902 30.7821C60.4902 29.9181 60.2502 29.2401 59.7702 28.7481C59.2902 28.2561 58.6182 28.0101 57.7542 28.0101C56.9622 28.0101 56.2602 28.2141 55.6482 28.6221C55.0482 29.0301 54.5802 29.5761 54.2442 30.2601C53.9202 30.9321 53.7582 31.6761 53.7582 32.4921C53.7582 33.3561 53.9982 34.0401 54.4782 34.5441C54.9582 35.0361 55.6362 35.2821 56.5122 35.2821Z" fill="white"/>
<path d="M142.271 12.1286C141.397 12.1286 140.63 11.9357 139.97 11.55C139.31 11.1643 138.795 10.6415 138.427 9.98146C138.058 9.32146 137.874 8.58003 137.874 7.75717C137.874 6.92574 138.058 6.18431 138.427 5.53288C138.795 4.87288 139.31 4.35003 139.97 3.96431C140.63 3.5786 141.397 3.38574 142.271 3.38574C143.145 3.38574 143.913 3.5786 144.573 3.96431C145.233 4.35003 145.747 4.87288 146.115 5.53288C146.484 6.18431 146.668 6.92574 146.668 7.75717C146.668 8.58003 146.484 9.32146 146.115 9.98146C145.747 10.6415 145.233 11.1643 144.573 11.55C143.913 11.9357 143.145 12.1286 142.271 12.1286ZM142.271 11.2929C142.965 11.2929 143.574 11.1386 144.097 10.83C144.62 10.5129 145.027 10.0886 145.318 9.55717C145.61 9.01717 145.755 8.41717 145.755 7.75717C145.755 7.09717 145.61 6.50146 145.318 5.97003C145.027 5.43003 144.62 5.00574 144.097 4.69717C143.574 4.38003 142.965 4.22146 142.271 4.22146C141.585 4.22146 140.977 4.38003 140.445 4.69717C139.923 5.00574 139.515 5.43003 139.224 5.97003C138.933 6.50146 138.787 7.09717 138.787 7.75717C138.787 8.41717 138.933 9.01717 139.224 9.55717C139.515 10.0886 139.923 10.5129 140.445 10.83C140.977 11.1386 141.585 11.2929 142.271 11.2929ZM142.361 10.1615C141.633 10.1615 141.058 9.95146 140.638 9.53146C140.227 9.10289 140.021 8.52003 140.021 7.78289C140.021 7.04574 140.227 6.46717 140.638 6.04717C141.058 5.6186 141.633 5.40431 142.361 5.40431C142.867 5.40431 143.287 5.51574 143.621 5.7386C143.955 5.95288 144.204 6.2486 144.367 6.62574L143.621 6.9986C143.51 6.72431 143.351 6.5186 143.145 6.38146C142.94 6.24431 142.674 6.17574 142.348 6.17574C141.894 6.17574 141.534 6.31717 141.268 6.60003C141.011 6.88288 140.883 7.27717 140.883 7.78289C140.883 8.2886 141.011 8.68288 141.268 8.96574C141.534 9.2486 141.894 9.39003 142.348 9.39003C142.691 9.39003 142.974 9.32146 143.197 9.18431C143.428 9.0386 143.6 8.82003 143.711 8.5286L144.418 8.81146C144.255 9.23146 144.003 9.56146 143.66 9.80146C143.317 10.0415 142.884 10.1615 142.361 10.1615Z" fill="white"/>
</svg>
