<svg width="96" height="96" viewBox="0 0 96 96" fill="none" xmlns="http://www.w3.org/2000/svg">
<path fill-rule="evenodd" clip-rule="evenodd" d="M54.2396 5.02088C55.214 5.32732 56.0653 5.93663 56.6696 6.76019C57.2739 7.58374 57.5997 8.5786 57.5996 9.60008V33.6001H76.7996C77.6776 33.5997 78.5389 33.8401 79.2898 34.2952C80.0406 34.7503 80.6522 35.4027 81.0581 36.1812C81.464 36.9598 81.6485 37.8348 81.5917 38.711C81.5348 39.5871 81.2387 40.4309 80.7356 41.1505L47.1356 89.1505C46.5508 89.9883 45.714 90.6176 44.7468 90.9469C43.7797 91.2763 42.7327 91.2884 41.7581 90.9816C40.7836 90.6748 39.9324 90.065 39.3284 89.241C38.7243 88.417 38.3989 87.4218 38.3996 86.4001V62.4001H19.1996C18.3216 62.4005 17.4603 62.16 16.7094 61.7049C15.9586 61.2498 15.3469 60.5975 14.9411 59.8189C14.5352 59.0403 14.3507 58.1654 14.4075 57.2892C14.4644 56.413 14.7605 55.5693 15.2636 54.8497L48.8636 6.84968C49.4492 6.01346 50.2863 5.38574 51.253 5.05772C52.2198 4.72971 53.266 4.71849 54.2396 5.02568V5.02088Z" fill="white"/>
</svg>
